<?xml version="1.0" encoding="UTF-8" standalone="no"?>
<!DOCTYPE svg PUBLIC "-//W3C//DTD SVG 1.1//EN"
 "http://www.w3.org/Graphics/SVG/1.1/DTD/svg11.dtd">
<!-- Generated by graphviz version 2.40.1 (20161225.0304)
 -->
<!-- Title: Tree Pages: 1 -->
<svg width="504pt" height="305pt"
 viewBox="0.00 0.00 504.00 305.04" xmlns="http://www.w3.org/2000/svg" xmlns:xlink="http://www.w3.org/1999/xlink">
<g id="graph0" class="graph" transform="scale(.7724 .7724) rotate(0) translate(4 390.9194)">
<title>Tree</title>
<polygon fill="#ffffff" stroke="transparent" points="-4,4 -4,-390.9194 648.5,-390.9194 648.5,4 -4,4"/>
<!-- 0 -->
<g id="node1" class="node">
<title>0</title>
<path fill="#eda775" stroke="#000000" d="M567,-386C567,-386 415,-386 415,-386 409,-386 403,-380 403,-374 403,-374 403,-330 403,-330 403,-324 409,-318 415,-318 415,-318 567,-318 567,-318 573,-318 579,-324 579,-330 579,-330 579,-374 579,-374 579,-380 573,-386 567,-386"/>
<text text-anchor="start" x="411" y="-370.8" font-family="Helvetica,sans-Serif" font-size="14.00" fill="#000000">Coupler_System ≤ 0.5</text>
<text text-anchor="start" x="449" y="-355.8" font-family="Helvetica,sans-Serif" font-size="14.00" fill="#000000">mse = 0.48</text>
<text text-anchor="start" x="423" y="-340.8" font-family="Helvetica,sans-Serif" font-size="14.00" fill="#000000">samples = 404710</text>
<text text-anchor="start" x="445" y="-325.8" font-family="Helvetica,sans-Serif" font-size="14.00" fill="#000000">value = 10.1</text>
</g>
<!-- 1 -->
<g id="node2" class="node">
<title>1</title>
<path fill="#eb9d64" stroke="#000000" d="M395,-278C395,-278 261,-278 261,-278 255,-278 249,-272 249,-266 249,-266 249,-222 249,-222 249,-216 255,-210 261,-210 261,-210 395,-210 395,-210 401,-210 407,-216 407,-222 407,-222 407,-266 407,-266 407,-272 401,-278 395,-278"/>
<text text-anchor="start" x="257" y="-262.8" font-family="Helvetica,sans-Serif" font-size="14.00" fill="#000000">YearMade ≤ 1991.5</text>
<text text-anchor="start" x="286" y="-247.8" font-family="Helvetica,sans-Serif" font-size="14.00" fill="#000000">mse = 0.42</text>
<text text-anchor="start" x="260" y="-232.8" font-family="Helvetica,sans-Serif" font-size="14.00" fill="#000000">samples = 360847</text>
<text text-anchor="start" x="277.5" y="-217.8" font-family="Helvetica,sans-Serif" font-size="14.00" fill="#000000">value = 10.21</text>
</g>
<!-- 0&#45;&gt;1 -->
<g id="edge1" class="edge">
<title>0&#45;&gt;1</title>
<path fill="none" stroke="#000000" d="M439.4258,-317.8281C423.1437,-307.04 405.0112,-295.0258 388.1828,-283.8757"/>
<polygon fill="#000000" stroke="#000000" points="389.7877,-280.7405 379.5183,-278.1348 385.9213,-286.5759 389.7877,-280.7405"/>
<text text-anchor="middle" x="384.4907" y="-298.9353" font-family="Helvetica,sans-Serif" font-size="14.00" fill="#000000">True</text>
</g>
<!-- 2 -->
<g id="node7" class="node">
<title>2</title>
<path fill="#ffffff" stroke="#000000" d="M632.5,-54.5C632.5,-54.5 513.5,-54.5 513.5,-54.5 507.5,-54.5 501.5,-48.5 501.5,-42.5 501.5,-42.5 501.5,-13.5 501.5,-13.5 501.5,-7.5 507.5,-1.5 513.5,-1.5 513.5,-1.5 632.5,-1.5 632.5,-1.5 638.5,-1.5 644.5,-7.5 644.5,-13.5 644.5,-13.5 644.5,-42.5 644.5,-42.5 644.5,-48.5 638.5,-54.5 632.5,-54.5"/>
<text text-anchor="start" x="531" y="-39.3" font-family="Helvetica,sans-Serif" font-size="14.00" fill="#000000">mse = 0.12</text>
<text text-anchor="start" x="509.5" y="-24.3" font-family="Helvetica,sans-Serif" font-size="14.00" fill="#000000">samples = 43863</text>
<text text-anchor="start" x="527" y="-9.3" font-family="Helvetica,sans-Serif" font-size="14.00" fill="#000000">value = 9.21</text>
</g>
<!-- 0&#45;&gt;2 -->
<g id="edge6" class="edge">
<title>0&#45;&gt;2</title>
<path fill="none" stroke="#000000" d="M499.6205,-317.9387C515.1619,-256.5309 547.7455,-127.7862 563.7409,-64.5847"/>
<polygon fill="#000000" stroke="#000000" points="567.1917,-65.2147 566.2523,-54.6616 560.4057,-63.4972 567.1917,-65.2147"/>
<text text-anchor="middle" x="579.0524" y="-72.4362" font-family="Helvetica,sans-Serif" font-size="14.00" fill="#000000">False</text>
</g>
<!-- 3 -->
<g id="node3" class="node">
<title>3</title>
<path fill="#f0b48a" stroke="#000000" d="M140,-54.5C140,-54.5 12,-54.5 12,-54.5 6,-54.5 0,-48.5 0,-42.5 0,-42.5 0,-13.5 0,-13.5 0,-7.5 6,-1.5 12,-1.5 12,-1.5 140,-1.5 140,-1.5 146,-1.5 152,-7.5 152,-13.5 152,-13.5 152,-42.5 152,-42.5 152,-48.5 146,-54.5 140,-54.5"/>
<text text-anchor="start" x="34" y="-39.3" font-family="Helvetica,sans-Serif" font-size="14.00" fill="#000000">mse = 0.37</text>
<text text-anchor="start" x="8" y="-24.3" font-family="Helvetica,sans-Serif" font-size="14.00" fill="#000000">samples = 155724</text>
<text text-anchor="start" x="30" y="-9.3" font-family="Helvetica,sans-Serif" font-size="14.00" fill="#000000">value = 9.97</text>
</g>
<!-- 1&#45;&gt;3 -->
<g id="edge2" class="edge">
<title>1&#45;&gt;3</title>
<path fill="none" stroke="#000000" d="M288.0699,-209.7742C240.5777,-169.0666 161.8355,-101.5733 114.8316,-61.2842"/>
<polygon fill="#000000" stroke="#000000" points="116.8751,-58.426 107.0047,-54.5755 112.3195,-63.7408 116.8751,-58.426"/>
</g>
<!-- 4 -->
<g id="node4" class="node">
<title>4</title>
<path fill="#e78a48" stroke="#000000" d="M392,-170C392,-170 264,-170 264,-170 258,-170 252,-164 252,-158 252,-158 252,-114 252,-114 252,-108 258,-102 264,-102 264,-102 392,-102 392,-102 398,-102 404,-108 404,-114 404,-114 404,-158 404,-158 404,-164 398,-170 392,-170"/>
<text text-anchor="start" x="264.5" y="-154.8" font-family="Helvetica,sans-Serif" font-size="14.00" fill="#000000">ProductSize ≤ 4.5</text>
<text text-anchor="start" x="286" y="-139.8" font-family="Helvetica,sans-Serif" font-size="14.00" fill="#000000">mse = 0.37</text>
<text text-anchor="start" x="260" y="-124.8" font-family="Helvetica,sans-Serif" font-size="14.00" fill="#000000">samples = 205123</text>
<text text-anchor="start" x="282" y="-109.8" font-family="Helvetica,sans-Serif" font-size="14.00" fill="#000000">value = 10.4</text>
</g>
<!-- 1&#45;&gt;4 -->
<g id="edge3" class="edge">
<title>1&#45;&gt;4</title>
<path fill="none" stroke="#000000" d="M328,-209.8281C328,-200.4715 328,-190.1926 328,-180.3551"/>
<polygon fill="#000000" stroke="#000000" points="331.5001,-180.3202 328,-170.3203 324.5001,-180.3203 331.5001,-180.3202"/>
</g>
<!-- 5 -->
<g id="node5" class="node">
<title>5</title>
<path fill="#e58139" stroke="#000000" d="M310,-54.5C310,-54.5 182,-54.5 182,-54.5 176,-54.5 170,-48.5 170,-42.5 170,-42.5 170,-13.5 170,-13.5 170,-7.5 176,-1.5 182,-1.5 182,-1.5 310,-1.5 310,-1.5 316,-1.5 322,-7.5 322,-13.5 322,-13.5 322,-42.5 322,-42.5 322,-48.5 316,-54.5 310,-54.5"/>
<text text-anchor="start" x="204" y="-39.3" font-family="Helvetica,sans-Serif" font-size="14.00" fill="#000000">mse = 0.31</text>
<text text-anchor="start" x="178" y="-24.3" font-family="Helvetica,sans-Serif" font-size="14.00" fill="#000000">samples = 182403</text>
<text text-anchor="start" x="200" y="-9.3" font-family="Helvetica,sans-Serif" font-size="14.00" fill="#000000">value = 10.5</text>
</g>
<!-- 4&#45;&gt;5 -->
<g id="edge4" class="edge">
<title>4&#45;&gt;5</title>
<path fill="none" stroke="#000000" d="M302.0547,-101.8281C292.6764,-89.4762 282.0777,-75.517 272.6408,-63.0878"/>
<polygon fill="#000000" stroke="#000000" points="275.157,-60.614 266.3223,-54.766 269.5819,-64.847 275.157,-60.614"/>
</g>
<!-- 6 -->
<g id="node6" class="node">
<title>6</title>
<path fill="#f7d6bf" stroke="#000000" d="M471.5,-54.5C471.5,-54.5 352.5,-54.5 352.5,-54.5 346.5,-54.5 340.5,-48.5 340.5,-42.5 340.5,-42.5 340.5,-13.5 340.5,-13.5 340.5,-7.5 346.5,-1.5 352.5,-1.5 352.5,-1.5 471.5,-1.5 471.5,-1.5 477.5,-1.5 483.5,-7.5 483.5,-13.5 483.5,-13.5 483.5,-42.5 483.5,-42.5 483.5,-48.5 477.5,-54.5 471.5,-54.5"/>
<text text-anchor="start" x="370" y="-39.3" font-family="Helvetica,sans-Serif" font-size="14.00" fill="#000000">mse = 0.17</text>
<text text-anchor="start" x="348.5" y="-24.3" font-family="Helvetica,sans-Serif" font-size="14.00" fill="#000000">samples = 22720</text>
<text text-anchor="start" x="366" y="-9.3" font-family="Helvetica,sans-Serif" font-size="14.00" fill="#000000">value = 9.62</text>
</g>
<!-- 4&#45;&gt;6 -->
<g id="edge5" class="edge">
<title>4&#45;&gt;6</title>
<path fill="none" stroke="#000000" d="M354.5781,-101.8281C364.2775,-89.3575 375.2512,-75.2484 384.988,-62.7297"/>
<polygon fill="#000000" stroke="#000000" points="387.8053,-64.8083 391.182,-54.766 382.2798,-60.5107 387.8053,-64.8083"/>
</g>
</g>
</svg>
